<?xml version="1.0" encoding="UTF-8"?>
<svg id="Layer_1" data-name="Layer 1" xmlns="http://www.w3.org/2000/svg" viewBox="0 0 490 260">
  <path d="m140.45,55.38h0C122.15,37.09,104.69,19.66,99.5,0c-5.2,19.66-22.65,37.09-40.95,55.38C31.11,82.8,0,113.88,0,160.5c0,54.95,44.55,99.5,99.5,99.5s99.5-44.55,99.5-99.5c0-46.61-31.11-77.69-58.56-105.12Zm-54.16,67.24c17.7-9.82,42.18-34.3,14.27-69.68,50.75,33.55,35.6,80.56,18.9,101.46-12.37,15.49-27.28,15.04-36.7,7.52-12.96-10.35-10.85-31.29,3.53-39.3Zm-55.86,3.78c5.33-6.68,14.93-7.9,21.41-2.72,4.19,3.35,6.78,9.43,5.08,15.53-1.75,6.36-9.25,35.11,24.77,38.63h0s-22.95,6.16-39.58-7.09c-12.47-9.95-20.67-33.08-11.68-44.35Zm118.22,94.88c-17.24,21.59-69.9,22.35-99.12-.98-25.93-20.71-32.36-48.56-32.36-48.56,45.59,49.87,82.65,16.52,91.99,9.22,10.36-8.21,25.11-8.68,35.6-.3,12.26,9.79,13.98,27.99,3.89,40.62Z" style="fill: #eb0055; stroke-width: 0px;"/>
  <g>
    <path d="m262.84,129.89c0,4.04-.63,7.55-1.89,10.54-1.26,2.99-3.03,5.46-5.32,7.41-2.29,1.95-5.03,3.41-8.22,4.38-3.19.97-6.69,1.45-10.51,1.45-1.89,0-3.96-.08-6.23-.24-2.27-.16-4.32-.46-6.16-.91v-45.26c1.84-.45,3.89-.75,6.16-.91,2.27-.16,4.34-.24,6.23-.24,3.82,0,7.32.48,10.51,1.45,3.19.97,5.93,2.42,8.22,4.38,2.29,1.95,4.06,4.42,5.32,7.41,1.26,2.99,1.89,6.5,1.89,10.54Zm-25.39,18.05c6.2,0,10.82-1.58,13.87-4.75,3.05-3.17,4.58-7.6,4.58-13.3s-1.53-10.14-4.58-13.3c-3.05-3.17-7.68-4.75-13.87-4.75-1.84,0-3.27.02-4.28.07-1.01.05-1.72.09-2.12.13v35.69c.4.05,1.11.09,2.12.13,1.01.05,2.44.07,4.28.07Z" style="fill: #eb0055; stroke-width: 0px;"/>
    <path d="m285.06,117.5c.54,0,1.16.03,1.85.1.7.07,1.38.16,2.05.27s1.29.23,1.85.34c.56.11.98.21,1.25.3l-1.08,5.46c-.49-.18-1.31-.39-2.46-.64-1.14-.25-2.62-.37-4.41-.37-1.17,0-2.32.12-3.47.37-1.14.25-1.9.42-2.26.51v29.43h-6.26v-33.54c1.48-.54,3.32-1.04,5.52-1.52,2.2-.47,4.67-.71,7.41-.71Z" style="fill: #eb0055; stroke-width: 0px;"/>
    <path d="m326.01,152.25c-1.44.36-3.33.74-5.69,1.14s-5.08.61-8.18.61c-2.69,0-4.96-.39-6.8-1.18-1.84-.78-3.32-1.9-4.44-3.33-1.12-1.44-1.93-3.13-2.42-5.09-.49-1.95-.74-4.12-.74-6.5v-19.67h6.26v18.32c0,4.27.67,7.32,2.02,9.16,1.35,1.84,3.61,2.76,6.8,2.76.67,0,1.37-.02,2.09-.07.72-.04,1.39-.1,2.02-.17.63-.07,1.2-.13,1.72-.2.52-.07.89-.14,1.11-.24v-29.57h6.26v34.01Z" style="fill: #eb0055; stroke-width: 0px;"/>
    <path d="m367.63,135.82c0,2.65-.35,5.1-1.04,7.34-.7,2.25-1.72,4.18-3.06,5.79-1.35,1.62-3,2.87-4.95,3.77-1.95.9-4.19,1.35-6.7,1.35-2.02,0-3.81-.27-5.35-.81-1.55-.54-2.71-1.05-3.47-1.55v14.01h-6.26v-46.4c1.48-.36,3.33-.75,5.56-1.18,2.22-.43,4.79-.64,7.71-.64,2.69,0,5.12.43,7.27,1.28s4,2.06,5.52,3.64c1.53,1.57,2.7,3.49,3.54,5.76.83,2.27,1.25,4.82,1.25,7.64Zm-6.53,0c0-4.09-1.01-7.23-3.03-9.43-2.02-2.2-4.71-3.3-8.08-3.3-1.89,0-3.36.07-4.41.2-1.06.13-1.9.29-2.53.47v22.09c.76.63,1.86,1.23,3.3,1.82,1.44.58,3.01.88,4.71.88,1.8,0,3.33-.33,4.61-.98,1.28-.65,2.32-1.55,3.13-2.69.81-1.14,1.39-2.49,1.75-4.04.36-1.55.54-3.22.54-5.02Z" style="fill: #eb0055; stroke-width: 0px;"/>
    <path d="m387.77,117.37c2.51,0,4.64.33,6.36.98,1.73.65,3.12,1.57,4.18,2.76,1.05,1.19,1.81,2.61,2.26,4.24.45,1.64.67,3.45.67,5.42v21.89c-.54.09-1.29.21-2.26.37-.97.16-2.05.3-3.27.44s-2.53.26-3.94.37c-1.41.11-2.82.17-4.21.17-1.98,0-3.79-.2-5.46-.61-1.66-.4-3.1-1.04-4.31-1.92-1.21-.88-2.15-2.03-2.83-3.47-.67-1.44-1.01-3.17-1.01-5.19s.39-3.59,1.18-4.98c.79-1.39,1.85-2.51,3.2-3.37,1.35-.85,2.92-1.48,4.71-1.89,1.8-.4,3.68-.61,5.66-.61.63,0,1.28.03,1.95.1.67.07,1.31.16,1.92.27s1.13.21,1.58.3c.45.09.76.16.94.2v-1.75c0-1.03-.11-2.05-.34-3.06-.23-1.01-.63-1.91-1.21-2.69-.58-.79-1.38-1.41-2.39-1.89-1.01-.47-2.32-.71-3.94-.71-2.07,0-3.87.15-5.42.44-1.55.29-2.71.59-3.47.91l-.74-5.19c.81-.36,2.16-.71,4.04-1.04s3.93-.51,6.13-.51Zm.54,31.38c1.48,0,2.79-.03,3.94-.1,1.14-.07,2.1-.19,2.86-.37v-10.44c-.45-.22-1.18-.41-2.19-.57-1.01-.16-2.23-.24-3.67-.24-.94,0-1.94.07-3,.2-1.06.14-2.02.42-2.9.84-.88.43-1.61,1.01-2.19,1.75-.58.74-.88,1.72-.88,2.93,0,2.25.72,3.81,2.15,4.68,1.44.88,3.39,1.31,5.86,1.31Z" style="fill: #eb0055; stroke-width: 0px;"/>
    <path d="m422.11,153.94c-3.86-.09-6.6-.92-8.22-2.49-1.62-1.57-2.42-4.02-2.42-7.34v-42.02l6.26-1.08v42.09c0,1.03.09,1.89.27,2.56.18.67.47,1.21.88,1.62.4.4.94.71,1.62.91.67.2,1.5.37,2.49.51l-.88,5.25Z" style="fill: #eb0055; stroke-width: 0px;"/>
  </g>
  <g>
    <path d="m236.91,171.28c6.55,0,11.59,1.25,15.12,3.74,3.52,2.49,5.29,6.21,5.29,11.15,0,2.69-.48,5-1.45,6.9-.97,1.91-2.36,3.46-4.18,4.65-1.82,1.19-4.03,2.05-6.63,2.59-2.6.54-5.55.81-8.82.81h-5.19v17.31h-6.53v-46c1.84-.45,3.89-.75,6.16-.91,2.27-.16,4.34-.24,6.23-.24Zm.54,5.72c-2.78,0-4.92.07-6.4.2v18.32h4.92c2.24,0,4.27-.15,6.06-.44,1.8-.29,3.31-.78,4.55-1.48,1.23-.7,2.19-1.65,2.86-2.86s1.01-2.76,1.01-4.65-.35-3.28-1.04-4.45c-.7-1.17-1.64-2.1-2.83-2.8-1.19-.7-2.57-1.18-4.14-1.45-1.57-.27-3.23-.4-4.98-.4Z" style="fill: #eb0055; stroke-width: 0px;"/>
    <path d="m277.99,182.66c.54,0,1.16.03,1.85.1.7.07,1.38.16,2.05.27s1.29.23,1.85.34c.56.11.98.21,1.25.3l-1.08,5.46c-.49-.18-1.31-.39-2.46-.64-1.14-.25-2.62-.37-4.41-.37-1.17,0-2.32.12-3.47.37-1.14.25-1.9.42-2.26.51v29.43h-6.26v-33.54c1.48-.54,3.32-1.04,5.52-1.52,2.2-.47,4.67-.71,7.41-.71Z" style="fill: #eb0055; stroke-width: 0px;"/>
    <path d="m289.1,200.98c0-3.1.45-5.8,1.35-8.12.9-2.31,2.09-4.23,3.57-5.76,1.48-1.53,3.19-2.67,5.12-3.43,1.93-.76,3.91-1.15,5.93-1.15,4.71,0,8.33,1.47,10.84,4.41,2.51,2.94,3.77,7.42,3.77,13.44v1.04c0,.43-.02.82-.07,1.18h-23.98c.27,3.64,1.32,6.4,3.17,8.28,1.84,1.89,4.71,2.83,8.62,2.83,2.2,0,4.05-.19,5.56-.57,1.5-.38,2.64-.75,3.4-1.11l.88,5.25c-.76.4-2.1.83-4.01,1.28-1.91.45-4.07.67-6.5.67-3.05,0-5.69-.46-7.91-1.38-2.22-.92-4.05-2.19-5.49-3.81-1.44-1.62-2.5-3.54-3.2-5.76-.7-2.22-1.04-4.66-1.04-7.31Zm24.04-3.44c.04-2.83-.66-5.15-2.12-6.97-1.46-1.82-3.47-2.73-6.03-2.73-1.44,0-2.71.28-3.81.84-1.1.56-2.03,1.29-2.79,2.19-.76.9-1.36,1.93-1.78,3.1-.43,1.17-.71,2.36-.84,3.57h17.38Z" style="fill: #eb0055; stroke-width: 0px;"/>
    <path d="m328.7,184.41c1.44-.36,3.33-.74,5.69-1.15,2.36-.4,5.08-.61,8.18-.61,2.24,0,4.13.3,5.66.91,1.53.61,2.81,1.49,3.84,2.66.31-.23.81-.54,1.48-.94s1.5-.8,2.49-1.18c.99-.38,2.09-.72,3.3-1.01,1.21-.29,2.51-.44,3.91-.44,2.69,0,4.89.39,6.6,1.18,1.71.79,3.04,1.9,4.01,3.33.97,1.44,1.62,3.14,1.95,5.12.34,1.98.5,4.13.5,6.46v19.67h-6.26v-18.32c0-2.06-.1-3.84-.3-5.32-.2-1.48-.58-2.72-1.14-3.7-.56-.99-1.32-1.72-2.29-2.19-.97-.47-2.21-.71-3.74-.71-2.11,0-3.85.28-5.22.84-1.37.56-2.3,1.07-2.79,1.52.36,1.17.63,2.45.81,3.84.18,1.39.27,2.85.27,4.38v19.67h-6.26v-18.32c0-2.06-.11-3.84-.34-5.32-.23-1.48-.62-2.72-1.18-3.7-.56-.99-1.32-1.72-2.29-2.19-.97-.47-2.19-.71-3.67-.71-.63,0-1.3.02-2.02.07-.72.05-1.4.1-2.05.17-.65.07-1.25.15-1.78.24-.54.09-.9.16-1.08.2v29.57h-6.26v-34.01Z" style="fill: #eb0055; stroke-width: 0px;"/>
    <path d="m389.79,177.07c-1.12,0-2.08-.37-2.86-1.11-.79-.74-1.18-1.74-1.18-3s.39-2.26,1.18-3c.78-.74,1.74-1.11,2.86-1.11s2.08.37,2.86,1.11c.78.74,1.18,1.74,1.18,3s-.39,2.26-1.18,3c-.79.74-1.74,1.11-2.86,1.11Zm3.17,41.35h-6.26v-35.02h6.26v35.02Z" style="fill: #eb0055; stroke-width: 0px;"/>
    <path d="m431.61,217.41c-1.44.36-3.33.74-5.69,1.14s-5.08.61-8.18.61c-2.69,0-4.96-.39-6.8-1.18-1.84-.78-3.32-1.9-4.44-3.33-1.12-1.44-1.93-3.13-2.42-5.09-.49-1.95-.74-4.12-.74-6.5v-19.67h6.26v18.32c0,4.27.67,7.32,2.02,9.16,1.35,1.84,3.61,2.76,6.8,2.76.67,0,1.37-.02,2.09-.07.72-.04,1.39-.1,2.02-.17.63-.07,1.2-.13,1.72-.2.52-.07.89-.14,1.11-.24v-29.57h6.26v34.01Z" style="fill: #eb0055; stroke-width: 0px;"/>
    <path d="m442.38,184.41c1.44-.36,3.33-.74,5.69-1.15,2.36-.4,5.08-.61,8.18-.61,2.24,0,4.13.3,5.66.91,1.53.61,2.81,1.49,3.84,2.66.31-.23.81-.54,1.48-.94s1.5-.8,2.49-1.18c.99-.38,2.09-.72,3.3-1.01,1.21-.29,2.51-.44,3.91-.44,2.69,0,4.89.39,6.6,1.18,1.71.79,3.04,1.9,4.01,3.33.97,1.44,1.62,3.14,1.95,5.12.34,1.98.5,4.13.5,6.46v19.67h-6.26v-18.32c0-2.06-.1-3.84-.3-5.32-.2-1.48-.58-2.72-1.14-3.7-.56-.99-1.32-1.72-2.29-2.19-.97-.47-2.21-.71-3.74-.71-2.11,0-3.85.28-5.22.84-1.37.56-2.3,1.07-2.79,1.52.36,1.17.63,2.45.81,3.84.18,1.39.27,2.85.27,4.38v19.67h-6.26v-18.32c0-2.06-.11-3.84-.34-5.32-.23-1.48-.62-2.72-1.18-3.7-.56-.99-1.32-1.72-2.29-2.19-.97-.47-2.19-.71-3.67-.71-.63,0-1.3.02-2.02.07-.72.05-1.4.1-2.05.17-.65.07-1.25.15-1.78.24-.54.09-.9.16-1.08.2v29.57h-6.26v-34.01Z" style="fill: #eb0055; stroke-width: 0px;"/>
  </g>
</svg>