<svg width="133" height="99" viewBox="0 0 133 99" fill="none" xmlns="http://www.w3.org/2000/svg">
<g clip-path="url(#clip0_306_1471)">
<path d="M69.543 94.7823C69.543 91.9404 72.301 90.5781 74.5863 90.5781C76.8717 90.5781 79.6297 91.9404 79.6297 94.7823C79.6297 97.6242 76.8671 98.9865 74.5863 98.9865C72.3056 98.9865 69.543 97.6242 69.543 94.7823ZM71.3029 94.7823C71.3029 96.7797 72.1679 98.448 74.5863 98.448C77.0048 98.448 77.8721 96.7797 77.8721 94.7823C77.8721 92.7849 77.0071 91.1166 74.5863 91.1166C72.1656 91.1166 71.3029 92.7849 71.3029 94.7823Z" fill="white"/>
<path d="M61.0299 98.7851L57.7717 92.3465L56.746 98.2121L58.0493 98.4768V98.7851H54.5938V98.4768L55.9819 98.2121L57.3013 90.7656H58.6092L61.6976 96.8982L65.105 90.7656H66.2247L67.59 98.2121L69.063 98.4768V98.7851H64.5474V98.4768L65.9448 98.2121L64.9903 92.3189L61.475 98.7851H61.0299Z" fill="white"/>
<path d="M81.6052 90.6719H82.5643L89.0578 96.8159V91.3438L87.5755 91.0838V90.7685H90.9279V91.0838L89.7668 91.3438V98.887H89.0739L82.3142 92.5473V98.215L83.8355 98.4797V98.788H80.2812L80.2835 98.4797L81.6052 98.215V90.6719Z" fill="white"/>
<path d="M38.0784 98.3019V94.8686H43.0989V94.3186H38.0784V91.2305H38.3033C39.7924 91.2305 43.1379 91.6838 43.1379 91.6838V90.7656H35.0703V91.0809L36.4998 91.3386V98.2098L35.0703 98.4745V98.7851H43.2572V97.7749C43.2572 97.7749 39.4207 98.3019 38.4203 98.3019H38.0761H38.0784Z" fill="white"/>
<path d="M50.1551 95.093V95.4059L51.6993 95.7281V98.2594C51.2106 98.3675 50.6232 98.4458 49.7099 98.4458C47.4384 98.4458 46.2613 97.019 46.2613 94.8606C46.2613 91.9864 47.872 91.1304 49.7696 91.1304C51.0637 91.1304 52.3647 91.6044 53.037 91.9956L53.3445 91.0384C52.3487 90.776 50.9834 90.5781 49.625 90.5781C47.5301 90.5781 44.4922 91.6482 44.4922 94.9388C44.4922 97.5368 46.9863 99.0026 49.7076 99.0026C50.8687 99.0026 51.6419 98.9037 53.2297 98.5746V95.7281L54.4757 95.4059V95.093H50.1528H50.1551Z" fill="white"/>
<path d="M99.7785 90.7695V91.7015C99.7785 91.7015 97.6768 91.2482 96.6557 91.2482H96.3849V98.2137L97.8649 98.4761V98.789H93.3424V98.4761L94.8178 98.2137V91.2482H94.547C93.526 91.2482 91.4219 91.7015 91.4219 91.7015V90.7695H99.7785Z" fill="white"/>
<path d="M8.39338 82.7326L2.61117 74.8535H2.54004L2.66624 82.7326H0V70.5273H2.48727L8.28554 78.3904H8.35667L8.23047 70.5273H10.8967V82.7326H8.39109H8.39338Z" fill="white"/>
<path d="M20.1446 82.8757C16.5835 82.8757 13.7383 80.2547 13.7383 76.665C13.7383 73.0752 16.6202 70.3828 20.1446 70.3828C23.669 70.3828 26.5693 73.0383 26.5693 76.665C26.5693 80.2916 23.7057 82.8757 20.1446 82.8757ZM23.6162 76.6304C23.6162 74.495 22.0582 72.9509 20.163 72.9509C18.2677 72.9509 16.7097 74.495 16.7097 76.6304C16.7097 78.7659 18.2493 80.2916 20.163 80.2916C22.0766 80.2916 23.6162 78.7659 23.6162 76.6304Z" fill="white"/>
<path d="M36.5992 82.7326L34.2541 78.3351H32.2327V82.7326H29.4219V70.5273H34.8461C37.5674 70.5273 39.3732 71.7654 39.3732 74.368C39.3732 76.1099 38.3361 77.2582 36.9755 77.8496L39.8023 82.7326H36.5992ZM34.8622 76.0547C35.8466 76.0547 36.5257 75.3552 36.5257 74.4025C36.5257 73.4498 35.881 72.8768 34.8438 72.8768H32.2304V76.0547H34.8622Z" fill="white"/>
<path d="M42.3047 82.7326V70.5273H47.4949C51.1111 70.5273 53.9196 73.0402 53.9196 76.6668C53.9196 80.2934 51.1455 82.7349 47.4949 82.7349H42.3047V82.7326ZM47.4949 80.3095C49.4453 80.3095 50.9665 78.7655 50.9665 76.63C50.9665 74.4945 49.4453 72.9505 47.4949 72.9505H45.1315V80.3095H47.4949Z" fill="white"/>
<path d="M56.8008 82.7326V70.5273H59.6116V82.7326H56.8008Z" fill="white"/>
<path d="M69.9676 74.5166C69.6464 73.4396 68.7515 72.7585 67.3358 72.7585C66.2253 72.7585 65.3143 73.1543 65.3143 73.9068C65.3143 74.7329 66.1909 75.0735 68.1251 75.3082C71.0966 75.6487 72.7417 76.5646 72.7417 78.8612C72.7417 81.4637 70.4862 82.8813 67.5699 82.8813C64.8853 82.8813 62.6114 81.5535 62.4141 78.7001H65.117C65.3488 79.6689 66.2092 80.5318 67.6938 80.5318C69.0016 80.5318 69.9126 80.0117 69.9126 79.1856C69.9126 78.0903 68.8387 77.8924 66.6911 77.6231C64.1854 77.301 62.5035 76.5462 62.5035 74.3026C62.5035 72.059 64.4195 70.3906 67.4804 70.3906C70.5413 70.3906 72.3838 72.059 72.6339 74.5189H69.9676V74.5166Z" fill="white"/>
<path d="M82.3901 82.7326L78.4343 77.5988H78.3815V82.7326H75.5547V70.5273H78.3815V75.4265H78.4343L82.3006 70.5273H85.5038L80.7243 76.2181L85.7906 82.7349H82.3901V82.7326Z" fill="white"/>
<path d="M95.3972 77.7783V82.7326H92.5703V70.5273H101.59V72.9505H95.3972V75.3552H100.374V77.7783H95.3972Z" fill="white"/>
<path d="M104.07 82.7326V70.5273H106.881V82.7326H104.07Z" fill="white"/>
<path d="M110.323 82.7326V70.5273H113.149V80.3095H118.858V82.7326H110.32H110.323Z" fill="white"/>
<path d="M130.207 82.7326V74.7269H130.136L127.254 78.3167H126.843L123.961 74.7269H123.89V82.7326H121.098V70.5273H123.746L127.038 74.7638H127.057L130.386 70.5273H132.999V82.7326H130.207Z" fill="white"/>
<path d="M76.5295 39.488L82.6857 27.6095C87.8874 17.634 81.27 9.70426 65.9425 6.81631L62.5466 4.72917L48.1668 1.69396L47.1366 0.566395L45.4111 0.863243L44.709 0.209717C44.709 0.209717 42.8733 -0.158467 40.0992 0.0808523C37.3481 0.317871 35.976 1.12097 35.976 1.12097L35.618 1.5766L29.7808 3.39451L29.7578 3.60851L30.8225 3.7834L30.6412 4.73377L29.9322 5.12037L30.2603 6.25483C30.3544 6.52177 30.6137 6.69665 31.3158 6.85773L38.2636 8.24993L55.0802 17.68L60.6284 35.8085V36.4781L58.8685 38.7424C57.8979 39.0094 56.9503 39.3269 56.0233 39.6905L58.1962 36.2342V35.7924L54.3207 23.2787L49.9565 20.1147L56.3307 36.3654L54.1716 40.4959C44.4198 45.1419 37.6785 55.1082 37.6785 66.6554C37.6785 66.9453 37.6854 67.233 37.6923 67.5206H37.6992C39.3925 52.2686 52.2878 40.4108 67.9456 40.4108C76.7773 40.4108 84.7301 44.1847 90.2897 50.2114L90.2966 50.2068C86.9443 45.3467 82.1465 41.5683 76.5295 39.4903V39.488ZM37.7588 3.15749L35.7832 3.43132L35.6112 3.08845L36.1871 2.21862L37.9791 2.36359L37.7588 3.15749ZM45.434 2.51777L45.3491 1.83203L46.5629 1.56049L47.0448 2.60291L45.434 2.52007V2.51777ZM71.0295 36.5356L69.3591 37.8427C68.6271 37.7714 67.8883 37.7299 67.1403 37.7161L67.5051 35.8591L66.4588 23.0532L71.9863 26.1575L71.0318 36.5356H71.0295Z" fill="white"/>
</g>
<defs>
<clipPath id="clip0_306_1471">
<rect width="133" height="99" fill="white"/>
</clipPath>
</defs>
</svg>
