<svg width="39" height="44" viewBox="0 0 39 44" fill="none" xmlns="http://www.w3.org/2000/svg">
<path d="M10.6055 2.13976L10.6592 2.57165L11.6762 2.62382L11.373 1.96875L10.6055 2.13976Z" fill="black"/>
<path d="M4.44531 2.92673L4.55413 3.14267L5.8033 2.97021L5.94403 2.46876L4.80947 2.37891L4.44531 2.92673Z" fill="black"/>
<path d="M31.6762 26.4178L35.8415 18.8453C39.2307 12.3729 35.4716 6.36856 24.2522 4.17726L22.1166 2.87002L13.2331 1.00191L12.3742 0.272928L11.1424 0.480173L10.7144 0.104812C8.25817 -0.1691 5.92378 0.0975657 4.30029 0.861332L3.67352 1.68017L0.178453 2.8048L0 3.4164L0.403333 5.08016C0.565827 5.7048 0.906774 5.8903 2.19512 6.25697L5.76708 7.2961L11.1874 11.4541L16.5076 23.9743L14.7971 27.2207C9.38693 30.3844 5.75403 36.2496 5.75403 42.9641C5.75403 43.1351 5.75838 43.3047 5.76273 43.4757H5.77144C6.85812 33.8873 15.0031 26.4352 24.892 26.4352C30.4604 26.4352 35.4745 28.7989 38.9898 32.5743L39 32.5685C37.1574 29.9221 34.6315 27.7873 31.6776 26.4178H31.6762ZM18.726 23.8047L17.3535 25.9801C16.956 26.1352 16.5642 26.3047 16.1812 26.4873L17.5479 23.8845L13.5175 13.6497L16.277 15.6424L18.7274 23.5236V23.8018L18.726 23.8047ZM25.7829 24.8178L26.8405 23.9946L27.4441 17.4584L23.949 15.5033L24.6106 23.5685L24.3813 24.7381C24.2551 24.7352 24.1304 24.7323 24.0027 24.7323C22.3212 24.7323 20.6948 24.9598 19.1482 25.3859L20.2624 23.9598V23.5381L16.7543 12.1207L6.12254 6.18016L1.7294 5.30335C1.28544 5.2019 1.12005 5.09175 1.06201 4.92364L0.854544 4.20915L1.30285 3.96567L1.41747 3.36712L0.74428 3.25698L0.758789 3.1222L4.45117 1.97727L4.67751 1.69031C4.67751 1.69031 5.54511 1.18452 7.28466 1.03524C9.03873 0.88452 10.1994 1.1164 10.1994 1.1164L10.6434 1.528L11.7344 1.34104L12.3858 2.05118L21.4782 3.96277L23.6255 5.27726C33.3171 7.0961 37.5013 12.0903 34.2122 18.3729L30.3182 25.854C28.8833 25.325 27.3628 24.97 25.7843 24.8178H25.7829Z" fill="black"/>
</svg>
