<svg width="39" height="43" viewBox="0 0 39 43" fill="none" xmlns="http://www.w3.org/2000/svg">
<path d="M30.131 25.1477L34.0969 17.5829C37.4479 11.2301 33.1849 6.18008 23.3107 4.34092L21.123 3.01174L11.8593 1.07878L11.1957 0.360704L10.0841 0.54975L9.63175 0.133556C9.63175 0.133556 8.44921 -0.100919 6.66211 0.0514902C4.88978 0.202434 4.00584 0.713882 4.00584 0.713882L3.77524 1.00405L0.0147826 2.16177L0 2.29805L0.685872 2.40943L0.569096 3.01467L0.112342 3.26087L0.323719 3.98334C0.384324 4.15334 0.551358 4.26471 1.00368 4.3673L5.47957 5.25391L16.3131 11.2594L19.8873 22.8044V23.2308L18.7535 24.6728C18.1283 24.8428 17.5178 25.0451 16.9206 25.2766L18.3204 23.0755V22.7941L15.8238 14.8249L13.0123 12.8099L17.1187 23.159L15.7277 25.7895C9.4455 28.7483 5.10264 35.0953 5.10264 42.449C5.10264 42.6336 5.10707 42.8168 5.11151 43H5.11594C6.20683 33.2869 14.5141 25.7353 24.6012 25.7353C30.2906 25.7353 35.414 28.1387 38.9956 31.9767L39 31.9738C36.8404 28.8787 33.7495 26.4724 30.131 25.1491V25.1477ZM5.15438 2.01082L3.88167 2.18521L3.77081 1.96686L4.14183 1.41291L5.29628 1.50524L5.15438 2.01082ZM10.0988 1.60342L10.0442 1.16671L10.8261 0.993787L11.1365 1.65764L10.0988 1.60489V1.60342ZM26.5878 23.2675L25.5117 24.0998C25.0402 24.0544 24.5642 24.028 24.0823 24.0192L24.3174 22.8366L23.6433 14.6813L27.2042 16.6582L26.5893 23.2675H26.5878Z" fill="white"/>
</svg>
