<svg width="91" height="30" viewBox="0 0 91 30" fill="none" xmlns="http://www.w3.org/2000/svg">
<path d="M63.0173 9.52404H61.9389V3.58552H60.7344V2.63312H61.9389V2.03086C61.9389 0.58825 62.5692 0 64.0118 0H64.8101V0.980416H64.1098C63.3115 0.980416 63.0173 1.30255 63.0173 2.08689V2.63312H64.7681V3.58552H63.0173V9.52404Z" fill="white"/>
<path d="M60.0929 6.07704C60.0929 8.07989 58.5102 9.63455 56.5074 9.63455C54.5045 9.63455 52.9219 8.07989 52.9219 6.07704C52.9219 4.07419 54.5045 2.51953 56.5074 2.51953C58.5102 2.51953 60.0929 4.07419 60.0929 6.07704ZM56.5074 8.64013C57.894 8.64013 59.0145 7.50565 59.0145 6.07704C59.0145 4.64843 57.894 3.49995 56.5074 3.49995C55.1208 3.49995 54.0143 4.64843 54.0143 6.07704C54.0143 7.50565 55.1208 8.64013 56.5074 8.64013Z" fill="white"/>
<path d="M49.7593 9.52152H49.2131C47.8125 9.52152 47.3223 8.94728 47.3223 7.56069V3.583H46.2578V2.6306H47.3223V0.921875H48.3867V2.6306H49.7313V3.583H48.3867V7.44865C48.3867 8.23298 48.5688 8.54111 49.3531 8.54111H49.7593V9.52152Z" fill="white"/>
<path d="M43.5215 9.5225H42.457V2.63158H43.5075V3.41591C43.8296 2.9257 44.3058 2.51953 45.1042 2.51953C45.5804 2.51953 45.9445 2.65959 46.1266 2.79965L45.5523 3.78007C45.3703 3.68202 45.1462 3.58398 44.852 3.58398C43.9137 3.58398 43.5215 4.39633 43.5215 5.23668V9.5225Z" fill="white"/>
<path d="M37.023 8.64013C38.4096 8.64013 39.5301 7.58968 39.5301 6.07704C39.5301 4.5644 38.4096 3.49995 37.023 3.49995C35.6364 3.49995 34.53 4.60642 34.53 6.07704C34.53 7.54767 35.6364 8.64013 37.023 8.64013ZM40.5805 9.5225H39.5441V8.38802C38.9558 9.13034 38.0455 9.63455 36.967 9.63455C34.9221 9.63455 33.4375 8.12191 33.4375 6.07704C33.4375 4.07419 34.9782 2.51953 36.981 2.51953C38.0595 2.51953 38.9558 3.02374 39.5441 3.76606V2.63158H40.5805V9.5225Z" fill="white"/>
<path d="M26.6322 9.52404H25.5117V0H29.6295C31.5903 0 32.7528 1.21852 32.7528 2.78718C32.7528 4.4819 31.4642 5.71443 29.6435 5.71443H26.6322V9.52404ZM26.6322 4.72H29.5594C30.7079 4.72 31.5763 3.94968 31.5763 2.81519C31.5763 1.82077 30.7219 1.00843 29.5874 1.00843H26.6322V4.72Z" fill="white"/>
<path d="M48.125 24.1071C48.125 20.1399 51.975 18.2383 55.1653 18.2383C58.3555 18.2383 62.2055 20.1399 62.2055 24.1071C62.2055 28.0742 58.3491 29.9759 55.1653 29.9759C51.9814 29.9759 48.125 28.0742 48.125 24.1071ZM50.5817 24.1071C50.5817 26.8953 51.7893 29.2242 55.1653 29.2242C58.5412 29.2242 59.752 26.8953 59.752 24.1071C59.752 21.3188 58.5444 18.99 55.1653 18.99C51.7861 18.99 50.5817 21.3188 50.5817 24.1071Z" fill="white"/>
<path d="M36.2384 29.6947L31.6901 20.7068L30.2583 28.8949L32.0777 29.2643V29.6947H27.2539V29.2643L29.1917 28.8949L31.0335 18.5H32.8592L37.1705 27.0607L41.927 18.5H43.49L45.3958 28.8949L47.4522 29.2643V29.6947H41.1486V29.2643L43.0993 28.8949L41.7668 20.6683L36.8598 29.6947H36.2384Z" fill="white"/>
<path d="M64.9575 18.3672H66.2964L75.3609 26.9439V19.3052L73.2918 18.9422V18.5021H77.9714V18.9422L76.3507 19.3052V29.835H75.3834L65.9473 20.9852V28.897L68.0709 29.2664V29.6969H63.1094L63.1126 29.2664L64.9575 28.897V18.3672Z" fill="white"/>
<path d="M4.19917 29.0241V24.2314H11.2074V23.4636H4.19917V19.1528H4.51306C6.59183 19.1528 11.2618 19.7856 11.2618 19.7856V18.5039H0V18.944L1.99548 19.3038V28.8956L0 29.265V29.6987H11.4284V28.2885C11.4284 28.2885 6.07294 29.0241 4.67642 29.0241H4.19596H4.19917Z" fill="white"/>
<path d="M21.0652 24.5407V24.9776L23.2209 25.4273V28.9608C22.5386 29.1118 21.7186 29.221 20.4438 29.221C17.2728 29.221 15.6297 27.2294 15.6297 24.2163C15.6297 20.2042 17.8782 19.0092 20.5271 19.0092C22.3336 19.0092 24.1497 19.671 25.0882 20.217L25.5174 18.8807C24.1273 18.5145 22.2215 18.2383 20.3253 18.2383C17.401 18.2383 13.1602 19.732 13.1602 24.3255C13.1602 27.9522 16.6418 29.9984 20.4406 29.9984C22.0614 29.9984 23.1408 29.8603 25.3573 29.4009V25.4273L27.0965 24.9776V24.5407H21.062H21.0652Z" fill="white"/>
<path d="M90.3178 18.5039V19.8049C90.3178 19.8049 87.3838 19.1721 85.9584 19.1721H85.5805V28.8956L87.6464 29.2618V29.6987H81.3333V29.2618L83.3928 28.8956V19.1721H83.0149C81.5895 19.1721 78.6523 19.8049 78.6523 19.8049V18.5039H90.3178Z" fill="white"/>
</svg>
